<mxfile host="app.diagrams.net" modified="2023-02-21T01:46:02.824Z" agent="5.0 (Windows NT 10.0; Win64; x64) AppleWebKit/537.36 (KHTML, like Gecko) Chrome/110.0.0.0 Safari/537.36 Edg/110.0.1587.50" version="20.8.3" etag="A4kluC_SE7zmQZTn6AgT" type="github">
  <diagram id="JAI4023TARQraNgQVTQf" name="Page-1">
    <mxGraphModel dx="835" dy="458" grid="1" gridSize="10" guides="1" tooltips="1" connect="1" arrows="1" fold="1" page="1" pageScale="1" pageWidth="3300" pageHeight="4681" math="0" shadow="0">
      <root>
        <mxCell id="0" />
        <mxCell id="1" parent="0" />
        <mxCell id="Mai_8PukD8vyJlD9m-7o-1" value="node0&lt;br&gt;mcp-discovery-register&lt;br&gt;os: sles&lt;br&gt;&lt;br&gt;" style="rounded=1;whiteSpace=wrap;html=1;align=left;" vertex="1" parent="1">
          <mxGeometry x="110" y="221" width="170" height="80" as="geometry" />
        </mxCell>
        <mxCell id="Mai_8PukD8vyJlD9m-7o-3" value="node1&lt;br&gt;mcp-discovery-register&lt;br&gt;os: sle&lt;br&gt;s" style="rounded=1;whiteSpace=wrap;html=1;align=left;" vertex="1" parent="1">
          <mxGeometry x="110" y="250" width="170" height="80" as="geometry" />
        </mxCell>
        <mxCell id="Mai_8PukD8vyJlD9m-7o-4" value="node2&lt;br&gt;os: sles" style="rounded=1;whiteSpace=wrap;html=1;align=left;" vertex="1" parent="1">
          <mxGeometry x="110" y="281" width="170" height="80" as="geometry" />
        </mxCell>
        <mxCell id="Mai_8PukD8vyJlD9m-7o-5" value="primary node&lt;br&gt;os: sles&lt;br&gt;&lt;br&gt;&lt;br&gt;&lt;br&gt;" style="rounded=1;whiteSpace=wrap;html=1;align=left;" vertex="1" parent="1">
          <mxGeometry x="350" y="120" width="360" height="290" as="geometry" />
        </mxCell>
        <mxCell id="Mai_8PukD8vyJlD9m-7o-9" value="" style="edgeStyle=orthogonalEdgeStyle;rounded=0;orthogonalLoop=1;jettySize=auto;html=1;fontSize=10;entryX=0;entryY=0.5;entryDx=0;entryDy=0;" edge="1" parent="1" source="Mai_8PukD8vyJlD9m-7o-7" target="Mai_8PukD8vyJlD9m-7o-12">
          <mxGeometry relative="1" as="geometry">
            <mxPoint x="405" y="320" as="targetPoint" />
          </mxGeometry>
        </mxCell>
        <mxCell id="Mai_8PukD8vyJlD9m-7o-7" value="&lt;span style=&quot;text-align: left;&quot;&gt;&lt;font style=&quot;font-size: 10px;&quot;&gt;mcp-discovery-register&lt;/font&gt;&lt;/span&gt;" style="rounded=1;whiteSpace=wrap;html=1;" vertex="1" parent="1">
          <mxGeometry x="160" y="301" width="110" height="30" as="geometry" />
        </mxCell>
        <mxCell id="Mai_8PukD8vyJlD9m-7o-20" style="edgeStyle=orthogonalEdgeStyle;rounded=0;orthogonalLoop=1;jettySize=auto;html=1;entryX=0.5;entryY=1;entryDx=0;entryDy=0;fontSize=10;" edge="1" parent="1" source="Mai_8PukD8vyJlD9m-7o-11" target="Mai_8PukD8vyJlD9m-7o-12">
          <mxGeometry relative="1" as="geometry" />
        </mxCell>
        <mxCell id="Mai_8PukD8vyJlD9m-7o-11" value="&lt;span style=&quot;text-align: left;&quot;&gt;&lt;font style=&quot;font-size: 10px;&quot;&gt;mcp-discovery-register&lt;/font&gt;&lt;/span&gt;" style="rounded=1;whiteSpace=wrap;html=1;" vertex="1" parent="1">
          <mxGeometry x="493" y="370" width="110" height="30" as="geometry" />
        </mxCell>
        <mxCell id="Mai_8PukD8vyJlD9m-7o-12" value="&lt;span style=&quot;text-align: left;&quot;&gt;&lt;font style=&quot;font-size: 10px;&quot;&gt;mcp-discovery-browser&lt;/font&gt;&lt;/span&gt;" style="rounded=1;whiteSpace=wrap;html=1;" vertex="1" parent="1">
          <mxGeometry x="493" y="300" width="110" height="30" as="geometry" />
        </mxCell>
        <mxCell id="Mai_8PukD8vyJlD9m-7o-23" style="edgeStyle=orthogonalEdgeStyle;rounded=0;orthogonalLoop=1;jettySize=auto;html=1;entryX=0.5;entryY=0;entryDx=0;entryDy=0;fontSize=10;" edge="1" parent="1" source="Mai_8PukD8vyJlD9m-7o-13" target="Mai_8PukD8vyJlD9m-7o-12">
          <mxGeometry relative="1" as="geometry" />
        </mxCell>
        <mxCell id="Mai_8PukD8vyJlD9m-7o-13" value="&lt;span style=&quot;text-align: left;&quot;&gt;&lt;font style=&quot;font-size: 10px;&quot;&gt;mcp-bootstrap-agent&lt;/font&gt;&lt;/span&gt;" style="rounded=1;whiteSpace=wrap;html=1;" vertex="1" parent="1">
          <mxGeometry x="493" y="250" width="110" height="30" as="geometry" />
        </mxCell>
        <mxCell id="Mai_8PukD8vyJlD9m-7o-17" value="mcp-cluser&lt;br&gt;(rke2)&lt;br&gt;&lt;br&gt;&lt;br&gt;&lt;br&gt;&lt;br&gt;&lt;br&gt;" style="rounded=1;whiteSpace=wrap;html=1;fontSize=10;align=left;dashed=1;" vertex="1" parent="1">
          <mxGeometry x="437" y="130" width="230" height="110" as="geometry" />
        </mxCell>
        <mxCell id="Mai_8PukD8vyJlD9m-7o-26" style="edgeStyle=orthogonalEdgeStyle;rounded=0;orthogonalLoop=1;jettySize=auto;html=1;entryX=0.5;entryY=0;entryDx=0;entryDy=0;fontSize=10;" edge="1" parent="1" source="Mai_8PukD8vyJlD9m-7o-18" target="Mai_8PukD8vyJlD9m-7o-13">
          <mxGeometry relative="1" as="geometry" />
        </mxCell>
        <mxCell id="Mai_8PukD8vyJlD9m-7o-18" value="mcp-discovery-adapter" style="rounded=0;whiteSpace=wrap;html=1;fontSize=10;" vertex="1" parent="1">
          <mxGeometry x="494" y="175.5" width="107" height="19" as="geometry" />
        </mxCell>
        <mxCell id="Mai_8PukD8vyJlD9m-7o-25" style="edgeStyle=orthogonalEdgeStyle;rounded=0;orthogonalLoop=1;jettySize=auto;html=1;fontSize=10;" edge="1" parent="1" source="Mai_8PukD8vyJlD9m-7o-19" target="Mai_8PukD8vyJlD9m-7o-18">
          <mxGeometry relative="1" as="geometry" />
        </mxCell>
        <mxCell id="Mai_8PukD8vyJlD9m-7o-19" value="mcp-day1-serivce" style="rounded=0;whiteSpace=wrap;html=1;fontSize=10;" vertex="1" parent="1">
          <mxGeometry x="494" y="131" width="107" height="19" as="geometry" />
        </mxCell>
      </root>
    </mxGraphModel>
  </diagram>
</mxfile>
